<svg id="Capa_1" enable-background="new 0 0 512 512" height="512" viewBox="0 0 512 512" width="512" xmlns="http://www.w3.org/2000/svg"><g><path d="m348.164 225.771-73.034-67.835c-25.794-13.414-55.106-20.996-86.189-20.996l-20 187.06 20 187.06c41.414 0 79.685-13.458 110.677-36.24l76.376-152.404c-.294-35.432-10.439-68.515-27.83-96.645z" fill="#b3d9ff"/><path d="m76.663 174.37-74.783 149.63c0 10.151.809 20.113 2.365 29.825 4.803 29.976 16.728 57.574 33.985 81.002l102.782 70.037c15.296 4.043 31.36 6.196 47.928 6.196v-374.12c-42.13 0-81.007 13.928-112.277 37.43z" fill="#ccf7ff"/><path d="m0 60.94h30v30h-30z" fill="#ece6f2"/><path d="m60 30.94h30v30h-30z" fill="#ffda44"/><path d="m180 60.94h30v30h-30z" fill="#ffda44"/><path d="m482 452.94h30v30h-30z" fill="#ffb655"/><path d="m422 422.94h30v30h-30z" fill="#ffb655"/><path d="m452 302.94h30v30h-30z" fill="#6e76e5"/><path d="m126.76 206.375-50.094-32.002c-45.412 34.13-74.786 88.446-74.786 149.627 0 10.151.82 20.11 2.377 29.823l122.503-101.331z" fill="#2ee6a8"/><path d="m218.94 276.328h73.58l23.537-44.639 32.094-5.916c-17.732-28.679-42.991-52.207-73.026-67.827l-56.185 43.593z" fill="#24b3b3"/><path d="m333.123 356.813-40.602-18.304h-73.58v67.415l34.717 47.619 45.952 21.268c46.32-34.049 76.39-88.915 76.39-150.811 0-.53-.016-1.055-.02-1.584z" fill="#24b3b3"/><path d="m38.242 434.824c24.931 33.844 60.985 58.984 102.773 70.029l-22.683-106.79z" fill="#2ee6a8"/><path d="m437 .94-20 75 20 75c41.355 0 75-33.645 75-75s-33.645-75-75-75z" fill="#a3aacc"/><path d="m362 75.94c0 41.355 33.645 75 75 75v-150c-41.355 0-75 33.645-75 75z" fill="#cfcfe6"/></g></svg>