<svg id="Capa_1" enable-background="new 0 0 512 512" height="512" viewBox="0 0 512 512" width="512" xmlns="http://www.w3.org/2000/svg"><g><g fill="#fff5f5"><path d="m60.001 407h89.999v30h-89.999z" transform="matrix(.8 -.6 .6 .8 -232.2 147.4)"/><path d="m135 195.936h30v152.13h-30z" transform="matrix(.99 -.141 .141 .99 -36.959 23.947)"/><path d="m144.992 91h146.015v30h-146.015z" transform="matrix(.806 -.592 .592 .806 -20.436 149.686)"/></g><path d="m369.001 32.994h30v146.014h-30z" fill="#ece6f2" transform="matrix(.592 -.806 .806 .592 71.18 352.65)"/><path d="m452 197h30v210h-30z" fill="#ece6f2"/><path d="m165 152h272v30h-272z" fill="#ece6f2"/><path d="m332 452h30v30h-30z" fill="#6e76e5"/><path d="m362 332h30v30h-30z" fill="#ffb655"/><path d="m30 270h30v30h-30z" fill="#ece6f2"/><path d="m240 300h30v30h-30z" fill="#6e76e5"/><path d="m300 240h30v30h-30z" fill="#ffb655"/><g><path d="m482 60h30v30h-30z" fill="#cfcfe6"/></g><path d="m422 0h30v30h-30z" fill="#ffb655"/><path d="m0 60h30v30h-30z" fill="#ffda44"/><path d="m60 30h30v30h-30z" fill="#80aaff"/><g><path d="m45 422-20 46.79 20 43.21c24.813 0 45-20.187 45-45s-20.187-45-45-45z" fill="#ffda44"/><path d="m0 467c0 24.813 20.187 45 45 45v-90c-24.813 0-45 20.187-45 45z" fill="#fff79f"/></g><path d="m165 332-20 46.79 20 43.21c24.813 0 45-20.187 45-45s-20.187-45-45-45z" fill="#ffda44"/><path d="m120 377c0 24.813 20.187 45 45 45v-90c-24.813 0-45 20.187-45 45z" fill="#fff79f"/><path d="m135 122-20 46.79 20 43.21c24.813 0 45-20.187 45-45s-20.187-45-45-45z" fill="#ffda44"/><path d="m90 167c0 24.813 20.187 45 45 45v-90c-24.813 0-45 20.187-45 45z" fill="#fff79f"/><path d="m301 0-20 46.79 20 43.21c24.813 0 45-20.187 45-45s-20.187-45-45-45z" fill="#ffda44"/><path d="m256 45c0 24.813 20.187 45 45 45v-90c-24.813 0-45 20.187-45 45z" fill="#fff79f"/><g><path d="m467 122-20 46.79 20 43.21c24.813 0 45-20.187 45-45s-20.187-45-45-45z" fill="#ffda44"/><path d="m422 167c0 24.813 20.187 45 45 45v-90c-24.813 0-45 20.187-45 45z" fill="#fff79f"/></g><g><path d="m467 392-20 46.79 20 43.21c24.813 0 45-20.187 45-45s-20.187-45-45-45z" fill="#ffda44"/><path d="m422 437c0 24.813 20.187 45 45 45v-90c-24.813 0-45 20.187-45 45z" fill="#fff79f"/></g></g></svg>