<svg id="Capa_1" enable-background="new 0 0 512.038 512.038" height="512" viewBox="0 0 512.038 512.038" width="512" xmlns="http://www.w3.org/2000/svg"><g><g><path d="m107.028 88.666h263.213v30h-263.213z" fill="#ffda44" transform="matrix(.707 -.707 .707 .707 -3.409 199.103)"/></g><g><path d="m166.275 99.273h293.213v30h-293.213z" fill="#ffda44" transform="matrix(.707 -.707 .707 .707 10.838 254.71)"/></g><g><path d="m225.521 109.88h323.213v30h-323.213z" fill="#ffda44" transform="matrix(.707 -.707 .707 .707 25.084 310.317)"/></g><g><path d="m251.127 184.126h293.213v30h-293.213z" fill="#ffb655" transform="matrix(.707 -.707 .707 .707 -24.31 339.563)"/></g><g><path d="m276.734 258.372h263.213v30h-263.213z" fill="#ffb655" transform="matrix(.707 -.707 .707 .707 -73.703 368.809)"/></g><path d="m29.968 150.038h30v30h-30z" fill="#ffda44"/><path d="m59.968 60.038h30v30h-30z" fill="#80aaff"/><g><path d="m421.968 482.038h30v30h-30z" fill="#ffb655"/></g><path d="m451.968 332.038h30v30h-30z" fill="#6e76e5"/><path d="m361.968 452.038h30v30h-30z" fill="#cfcfe6"/><path d="m230.428 281.579c-26.318-26.318-60.889-39.478-95.459-39.478l-20 134.937 20 134.937c34.571 0 69.141-13.159 95.459-39.477 52.636-52.637 52.636-138.283 0-190.919z" fill="#80aaff"/><path d="m39.509 281.579c-52.636 52.636-52.636 138.283 0 190.919 26.318 26.318 60.889 39.477 95.459 39.477v-269.874c-34.57 0-69.141 13.159-95.459 39.478z" fill="#b3d9ff"/></g></svg>