<svg id="Capa_1" enable-background="new 0 0 512 512" height="512" viewBox="0 0 512 512" width="512" xmlns="http://www.w3.org/2000/svg"><g><path d="m62.537 407h114.926v30h-114.926z" fill="#fff5f5" transform="matrix(.858 -.515 .515 .858 -200.015 121.876)"/><path d="m188.542 286h134.917v30.001h-134.917z" fill="#fff5f5" transform="matrix(.626 -.78 .78 .626 -138.982 312.227)"/><path d="m347 210h90v30h-90z" fill="#ece6f2"/><path d="m437 73.757h30v122.487h-30z" fill="#ece6f2" transform="matrix(.986 -.164 .164 .986 -16.044 76.145)"/><path d="m452 422h-30v-30h-30v30h-30v30h30v30h30v-30h30z" fill="#ffb655"/><path d="m237.426 143.787-21.213-21.213-21.213 21.213-21.213-21.213-21.213 21.213 21.213 21.213-21.213 21.213 21.213 21.213 21.213-21.213 21.213 21.213 21.213-21.213-21.213-21.213z" fill="#80aaff"/><path d="m30 300h30v30h-30z" fill="#ece6f2"/><path d="m90 270h30v30h-30z" fill="#ffda44"/><path d="m330 330h30v30h-30z" fill="#6e76e5"/><path d="m150 30h30v30h-30z" fill="#ece6f2"/><path d="m45 422-20 46.79 20 43.21c24.813 0 45-20.187 45-45s-20.187-45-45-45z" fill="#ffda44"/><path d="m0 467c0 24.813 20.187 45 45 45v-90c-24.813 0-45 20.187-45 45z" fill="#fff79f"/><path d="m195 332-20 46.79 20 43.21c24.813 0 45-20.187 45-45s-20.187-45-45-45z" fill="#ffda44"/><path d="m150 377c0 24.813 20.187 45 45 45v-90c-24.813 0-45 20.187-45 45z" fill="#fff79f"/><path d="m317 180-20 46.79 20 43.21c24.813 0 45-20.187 45-45s-20.187-45-45-45z" fill="#ffda44"/><path d="m272 225c0 24.813 20.187 45 45 45v-90c-24.813 0-45 20.187-45 45z" fill="#fff79f"/><path d="m467 180-20 46.79 20 43.21c24.813 0 45-20.187 45-45s-20.187-45-45-45z" fill="#ffda44"/><path d="m422 225c0 24.813 20.187 45 45 45v-90c-24.813 0-45 20.187-45 45z" fill="#fff79f"/><path d="m437 0-20 46.79 20 43.21c24.813 0 45-20.187 45-45s-20.187-45-45-45z" fill="#ffda44"/><path d="m392 45c0 24.813 20.187 45 45 45v-90c-24.813 0-45 20.187-45 45z" fill="#fff79f"/></g></svg>