<svg id="Capa_1" enable-background="new 0 0 512 512" height="512" viewBox="0 0 512 512" width="512" xmlns="http://www.w3.org/2000/svg"><g><path d="m256 45-20 211 20 211c36.011 0 69.915-9.021 99.576-24.927l111.424-186.073c0-42.211-12.395-81.527-33.744-114.507l-92.105-78.606c-26.044-11.5-54.851-17.887-85.151-17.887z" fill="#b3d9ff"/><path d="m45 256c0 44.585 13.828 85.94 37.43 120.011l113.578 82.339c19.016 5.628 39.151 8.65 59.992 8.65v-422c-51.587 0-98.851 18.513-135.509 49.258z" fill="#ccf7ff"/><path d="m0 60h30v30h-30z" fill="#ffda44"/><path d="m30 452h30v30h-30z" fill="#80aaff"/><path d="m60 30h30v30h-30z" fill="#ece6f2"/><path d="m482 90h30v30h-30z" fill="#6e76e5"/><path d="m482 482h30v30h-30z" fill="#ffb655"/><path d="m422 452h30v30h-30z" fill="#ffb655"/><path d="m422 0h30v30h-30z" fill="#cfcfe6"/><path d="m186 363-58-9-45.558 22.001c27.052 39.052 66.939 68.528 113.565 82.332l21.993-40.333z" fill="#2ee6a8"/><path d="m196 187v-67l-75.5-25.732c-46.15 38.706-75.5 96.787-75.5 161.732l71 31z" fill="#2ee6a8"/><g fill="#24b3b3"><path d="m286 210h71l29-55 47.247-13.504c-22.265-34.395-54.269-61.89-92.108-78.598l-55.139 57.102z"/><path d="m384 295.696-27-25.696h-71v65.051l33.5 45.949 46.5 11-10.43 50.064c66.321-35.566 111.43-105.543 111.43-186.064z"/></g></g></svg>