<svg id="Capa_1" enable-background="new 0 0 512 512" height="512" viewBox="0 0 512 512" width="512" xmlns="http://www.w3.org/2000/svg"><g><path d="m0 90h30v30h-30z" fill="#80aaff"/><path d="m60 60h30v30h-30z" fill="#ece6f2"/><path d="m150 30h30v30h-30z" fill="#ffda44"/><path d="m482 482h30v30h-30z" fill="#ffb655"/><path d="m422 452h30v30h-30z" fill="#ffb655"/><path d="m452 362h30v30h-30z" fill="#6e76e5"/><path d="m30 362h30v30h-30z" fill="#ffda44"/><path d="m90 422h30v30h-30z" fill="#80aaff"/><path d="m241 482h30v30h-30z" fill="#80aaff"/><path d="m301 422h30v30h-30z" fill="#cfcfe6"/><path d="m332 30h30v30h-30z" fill="#cfcfe6"/><path d="m422 0h30v30h-30z" fill="#ffb655"/><path d="m452 90h30v30h-30z" fill="#6e76e5"/><path d="m412.303 165.758-111.182 12.091-45.121-102.331-20 180.482 20 180.482 45.121-102.331 111.182 12.091-66.062-90.242z" fill="#ffda44"/><path d="m210.879 177.849-111.182-12.091 66.062 90.242-66.062 90.242 111.182-12.091 45.121 102.331v-360.964z" fill="#fff79f"/></g></svg>