<svg id="Capa_1" enable-background="new 0 0 512 512" height="512" viewBox="0 0 512 512" width="512" xmlns="http://www.w3.org/2000/svg"><g><path d="m0 60h30v30h-30z" fill="#ece6f2"/><path d="m60 30h30v30h-30z" fill="#ece6f2"/><path d="m120 120h30v30h-30z" fill="#80aaff"/><path d="m392 120h30v30h-30z" fill="#ffb655"/><path d="m482 482h30v30h-30z" fill="#cfcfe6"/><path d="m422 452h30v30h-30z" fill="#6e76e5"/><path d="m452 332h30v30h-30z" fill="#6e76e5"/><path d="m0 332h30v30h-30z" fill="#ffda44"/><path d="m60 392h30v30h-30z" fill="#80aaff"/><path d="m241 482h30v30h-30z" fill="#ffb655"/><path d="m181 452h30v30h-30z" fill="#ffda44"/><path d="m332 30h30v30h-30z" fill="#cfcfe6"/><path d="m422 0h30v30h-30z" fill="#ffb655"/><path d="m452.548 195.907-135.812-19.734-60.736-123.067-20 186.929 20 123.066 121.473 63.862-23.2-135.262z" fill="#ffda44"/><path d="m195.264 176.173-135.812 19.734 98.275 95.794-23.2 135.262 121.473-63.862v-309.995z" fill="#fff79f"/></g></svg>